<?xml version="1.0" encoding="UTF-8"?>
<svg id="PRIMARY" xmlns="http://www.w3.org/2000/svg" viewBox="0 0 514.96 312.46">
  <defs>
    <style>
      .cls-1, .cls-2 {
        fill: #fff;
      }

      .cls-2 {
        stroke: #fff;
        stroke-miterlimit: 10;
      }
    </style>
  </defs>
  <path class="cls-2" d="M165.32,67.45c-1.95-.12-10.42-4.17-12.11-4.28-8.43-.53-13.57,12.69-14.04,20.22-.5,7.91,1.25,17.4,9.81,17.94,3.76.24,7.33-.58,7.67-6.03.2-3.11-10.56.12-9.81-11.69.54-8.56,6.08-9.65,13.99-9.15,11.94.75,16.08,3.23,15.2,17.24-1.08,17.13-7.3,33.15-29.36,31.76-21.8-1.37-30.14-21.96-28.89-41.81,1.22-19.33,13.01-41.12,35.98-39.68,7.78.49,22.96,5.62,22.36,15.22-.37,5.84-5.62,10.59-10.81,10.26Z"/>
  <path class="cls-2" d="M221.98,148.18c-13.26,0-14.17-29.38-19.24-29.38-1.56,0-1.95,3.25-1.95,6.5s.39,7.28.39,11.05c0,8.45-3.9,13.65-12.74,13.65-7.8,0-8.32-6.11-8.32-13.91v-32.24c0-8.45.26-14.43.26-21.71,0-8.97,2.99-14.43,12.09-14.43,14.82,0,34.84.13,34.84,17.81,0,12.74-8.32,16.9-8.32,19.89,0,7.15,12.61,20.67,12.61,33.41,0,4.55-3.38,9.36-9.62,9.36ZM200.66,94.62c3.38,0,6.5-3.9,6.5-7.02,0-2.73-2.86-4.16-5.46-4.16-2.08,0-2.34,2.6-2.34,5.2v2.34c0,2.21.13,3.64,1.3,3.64Z"/>
  <path class="cls-2" d="M229.29,111.07c-.59-25.86,11.35-72.56,30.58-73,8.19-.19,13.99,9.17,19.09,21.54,4.82,11.98,8.8,26.72,9.67,41.78.19,8.45-3.5,17.51-10.91,17.67-12.35.28-5.49-18.47-12.49-23.25-1.19-.75-4.06-1.47-6.92-1.4-2.47.06-4.92.76-5.8,2.21-4.12,7.64-2.73,22.95-14.68,23.22-5.98.14-8.4-3.45-8.52-8.78ZM263.39,72.58c-.09-4.16-.38-10.91-3.63-10.84-4.29.1-4.94,5.83-4.83,10.77.07,3.25,1.54,4.65,4.66,4.57,2.73-.06,3.86-1.65,3.8-4.51Z"/>
  <path class="cls-2" d="M332.06,97.83c2.07.16,2.42-2.55,2.57-4.49.24-3.11.31-7.28.65-11.56.69-8.81,2.86-18.16,11.68-17.47,4.41.35,12.19,5.78,11.53,14.21-1.21,15.42-1.58,21.78-2.67,35.65-1.13,14.39-3.41,31.81-11.71,31.16-21-1.65-15.58-34.09-22.45-34.63-2.07-.16-2.78,3.82-3.23,9.53l-.23,2.98c-.73,9.33-2.09,19.92-13.36,19.03-13.74-1.08-13.04-16.54-11.93-30.67.76-9.72,1.4-17.76,2.12-26.96.89-11.28,4.94-23.08,15.57-22.25,8.94.7,14.86,34.94,21.47,35.46Z"/>
  <path class="cls-2" d="M380.47,123.48c-15.73,0-18.2-11.57-18.2-26.65,0-6.89.52-14.3.52-21.84,0-17.55.13-33.02,15.73-33.02,24.83,0,42.77,14.82,42.77,42.38,0,23.4-16.77,39.13-40.82,39.13ZM397.63,79.15c0-4.55-4.68-10.53-8.84-10.53-3.9,0-4.16,2.47-4.16,7.15v13c0,3.12.13,5.98,2.6,5.98,4.03,0,10.4-7.02,10.4-15.6Z"/>
  <path class="cls-2" d="M130.51,193.89c-2.49-12.5-5.41-24.51-7.57-35.34-3.5-17.6,2.34-24.19,19.94-27.7,14.41-2.87,28.78.1,31.55,14,5.74,28.82-23.83,20.12-21.22,33.25,1.14,5.74,4.06,17.09,4.98,21.68,1.62,8.16.7,10.86-7.84,12.56-11.22,2.23-16.67-2.51-19.84-18.45ZM149.98,146.54c-2.93.58-5.13,2.21-4.36,6.04.48,2.42,2.16,2.88,4.59,2.4,2.93-.58,5.69-2.72,5.13-5.53-.46-2.3-2.8-3.42-5.35-2.91Z"/>
  <path class="cls-2" d="M174.01,227.93c-.41-25.87,11.86-72.48,31.1-72.78,8.19-.13,13.93,9.27,18.93,21.68,4.74,12.02,8.61,26.78,9.37,41.85.13,8.45-3.63,17.48-11.04,17.6-12.35.19-5.36-18.51-12.33-23.34-1.18-.76-4.05-1.5-6.91-1.45-2.47.04-4.93.73-5.82,2.17-4.17,7.61-2.89,22.93-14.85,23.12-5.98.09-8.38-3.51-8.46-8.84ZM208.38,189.69c-.07-4.16-.3-10.92-3.55-10.87-4.29.07-4.98,5.8-4.9,10.74.05,3.25,1.5,4.66,4.62,4.61,2.73-.04,3.87-1.62,3.83-4.48Z"/>
  <path class="cls-2" d="M274.68,180.41c5.19.33,8.05,4.55,7.64,10.91-.69,10.77-7.93,12-16.36,11.46-18.55-1.18-25.87-2.82-24.78-19.95.88-13.75,1.21-25.07,2.17-40.12.72-11.29,2.02-23.45,11.49-22.85,12.58.8,11.79,15.34,11.19,24.68l-.02.39c-.65,10.25-.57,17.03-1.4,30.13-.26,4.02,5.41,5.03,10.08,5.33Z"/>
  <path class="cls-2" d="M305.36,230.02c-7.14,1.44-13.1.13-14.65-7.51-2.5-12.36,11.94-17.67,9.78-28.37-2.24-11.09-15.43-11.34-17.72-22.68-2.55-12.61,6.96-21.31,23.91-24.74,7.01-1.42,12.55,2.37,13.79,8.48,1.78,8.79-10.66,8.26-9.07,16.16,1.99,9.81,14.26,14.09,16.48,25.05,3.51,17.33-6.84,30.43-22.51,33.61Z"/>
  <g>
    <path class="cls-1" d="M136.59,32.15l-7.61-29.71"/>
    <path class="cls-1" d="M139,31.49c-2.54-9.9-5.07-19.81-7.61-29.71-.8-3.12-5.62-1.79-4.82,1.33,2.54,9.9,5.07,19.81,7.61,29.71.8,3.12,5.62,1.79,4.82-1.33h0Z"/>
  </g>
  <g>
    <path class="cls-1" d="M124.46,37.7l-10.6-11.08"/>
    <path class="cls-1" d="M126.23,35.93c-3.53-3.69-7.07-7.39-10.6-11.08-.91-.95-2.64-.98-3.54,0s-.97,2.53,0,3.54c3.53,3.69,7.07,7.39,10.6,11.08.91.95,2.64.98,3.54,0s.97-2.53,0-3.54h0Z"/>
  </g>
  <g>
    <path class="cls-1" d="M118.17,47.38l-28.3-11.82"/>
    <path class="cls-1" d="M118.83,44.97l-28.3-11.82c-1.25-.52-2.75.56-3.08,1.75-.4,1.44.49,2.55,1.75,3.08,9.43,3.94,18.87,7.88,28.3,11.82,1.25.52,2.75-.56,3.08-1.75.4-1.44-.49-2.55-1.75-3.08h0Z"/>
  </g>
  <g>
    <path class="cls-1" d="M312.28,241.03l.56,30.67"/>
    <path class="cls-1" d="M309.78,241.03l.56,30.67c.06,3.21,5.06,3.22,5,0l-.56-30.67c-.06-3.21-5.06-3.22-5,0h0Z"/>
  </g>
  <g>
    <path class="cls-1" d="M324.01,239.47c2.59,4.41,5.17,8.82,7.76,13.23"/>
    <path class="cls-1" d="M321.85,240.73c2.59,4.41,5.17,8.82,7.76,13.23.66,1.13,2.28,1.63,3.42.9s1.61-2.21.9-3.42c-2.59-4.41-5.17-8.82-7.76-13.23-.66-1.13-2.28-1.63-3.42-.9s-1.61,2.21-.9,3.42h0Z"/>
  </g>
  <g>
    <path class="cls-1" d="M333.71,230.45c8.27,6.01,16.55,12.01,24.82,18.02"/>
    <path class="cls-1" d="M332.45,232.61c8.27,6.01,16.55,12.01,24.82,18.02,1.09.79,2.79.19,3.42-.9.74-1.26.2-2.62-.9-3.42-8.27-6.01-16.55-12.01-24.82-18.02-1.09-.79-2.79-.19-3.42.9-.74,1.26-.2,2.62.9,3.42h0Z"/>
  </g>
</svg>